<svg data-cover="arms:covered" xmlns="http://www.w3.org/2000/svg" viewBox="56 56 400 400"><metadata id="sah">{"v":1,"fig":[["h1","mc"],["h2","ma"]]}</metadata>
<!-- back-view standing adult (centre): we see the back of the head + back, both arms reach down to tuck -->
<line x1="241" y1="302" x2="232" y2="452" stroke="#39425c" stroke-width="16" stroke-linecap="round"/>
<line x1="271" y1="302" x2="280" y2="452" stroke="#39425c" stroke-width="16" stroke-linecap="round"/>
<ellipse cx="232" cy="454" rx="13" ry="7" fill="#33373d"/>
<ellipse cx="280" cy="454" rx="13" ry="7" fill="#33373d"/>
<polygon points="224,192 288,192 286,304 226,304" fill="#2a5a8a" stroke="#1a1a1a" stroke-width="5" stroke-linejoin="round"/>
<line x1="256" y1="192" x2="256" y2="160" stroke="#1a1a1a" stroke-width="13" stroke-linecap="round"/>
<g transform="translate(0,-6)"><path d="M 230.0 305 L 254.0 305 L 250.0 455 L 226.0 455 Z" fill="#3a4a63" stroke="#1a1a1a" stroke-width="3" stroke-linejoin="round"/>
<path d="M 258.0 305 L 282.0 305 L 286.0 455 L 262.0 455 Z" fill="#3a4a63" stroke="#1a1a1a" stroke-width="3" stroke-linejoin="round"/>
<path d="M 226.0 197 L 286.0 197 L 290.0 375 L 222.0 375 Z" fill="#2a5a8a" stroke="#1a1a1a" stroke-width="4" stroke-linejoin="round"/>
<path d="M 246.0 199 Q 256.0 191 266.0 199" fill="none" stroke="#1f4368" stroke-width="5" stroke-linejoin="round"/>
<path d="M 256.0 205 L 280.0 215" fill="none" stroke="#1f4368" stroke-width="2" stroke-linejoin="round"/>
<line x1="256" y1="205" x2="256" y2="369" stroke="#1f4368" stroke-width="2" stroke-linecap="round"/></g>
<line x1="226" y1="196" x2="200" y2="346" stroke="#ffffff" stroke-width="21" stroke-linecap="round"/>
<line x1="226" y1="196" x2="200" y2="346" stroke="#1a1a1a" stroke-width="14" stroke-linecap="round"/>
<line x1="286" y1="196" x2="322" y2="346" stroke="#ffffff" stroke-width="21" stroke-linecap="round"/>
<line x1="286" y1="196" x2="322" y2="346" stroke="#1a1a1a" stroke-width="14" stroke-linecap="round"/>
<circle id="h2" data-fig="ma" class="skin" cx="256" cy="124" r="40" fill="#f5d6b0" stroke="#1a1a1a" stroke-width="6"/>
<!-- front-facing head: hair cap on top, face shows -->
<path d="M 216.0 124.0 Q 216.0 84.0 256 84.0 Q 296.0 84.0 296.0 124.0 Q 256 100.0 216.0 124.0 Z" fill="#241c14" stroke="#1a1a1a" stroke-width="3" stroke-linejoin="round"/>
<g transform="translate(0,-6)"><path d="M 212.0 134 Q 210.0 66 256.0 66 Q 302.0 66 300.0 134 Q 256.0 98 212.0 134 Z" fill="#2a5a8a" stroke="#1a1a1a" stroke-width="4" stroke-linejoin="round"/>
<path d="M 214.0 128 Q 256.0 92 298.0 128" fill="none" stroke="#9e4d22" stroke-width="3" stroke-linejoin="round"/>
<path d="M 244.0 68 Q 256.0 60 268.0 68" fill="none" stroke="#2a5a8a" stroke-width="6" stroke-linejoin="round"/></g>
<!-- bed in FRONT, drawn over the lower legs: child on the pillow + blanket -->
<rect x="96" y="362" width="320" height="58" rx="10" fill="#8a6a4a" stroke="#1a1a1a" stroke-width="4"/>
<rect x="96" y="350" width="320" height="26" rx="8" fill="#eef2f6" stroke="#1a1a1a" stroke-width="4"/>
<rect x="108" y="332" width="80" height="36" rx="12" fill="#ffffff" stroke="#1a1a1a" stroke-width="3"/>
<circle id="h1" data-fig="mc" cx="140" cy="352" r="24" fill="#f5d6b0" stroke="#1a1a1a" stroke-width="4"/>
<path d="M 124 342 q 16 -12 32 -2" fill="none" stroke="#5a3a1f" stroke-width="5" stroke-linejoin="round"/>
<path d="M 132 356 q 6 5 12 0" fill="none" stroke="#1a1a1a" stroke-width="2" stroke-linejoin="round"/>
<path d="M 148 356 q 6 5 12 0" fill="none" stroke="#1a1a1a" stroke-width="2" stroke-linejoin="round"/>
<path d="M 162 368 L 360 368 Q 360 328 300 328 Q 200 326 162 350 Z" fill="#3a6ea5" stroke="#1a1a1a" stroke-width="4" stroke-linejoin="round"/>
<line x1="244" y1="350" x2="244" y2="368" stroke="#2b5688" stroke-width="2" stroke-linecap="round"/>
<line x1="302" y1="342" x2="302" y2="368" stroke="#2b5688" stroke-width="2" stroke-linecap="round"/>
<!-- both arms reach down onto the blanket (drawn over the bed so the hands tuck it in) -->
<line x1="226" y1="196" x2="200" y2="346" stroke="#1a1a1a" stroke-width="14" stroke-linecap="round"/>
<line x1="286" y1="196" x2="322" y2="346" stroke="#1a1a1a" stroke-width="14" stroke-linecap="round"/>
<circle cx="200" cy="350" r="11" fill="#f5d6b0" stroke="#1a1a1a" stroke-width="3"/>
<circle cx="322" cy="350" r="11" fill="#f5d6b0" stroke="#1a1a1a" stroke-width="3"/>
<!-- love -->
<path d="M 256 250 C 238 234 238 252 256 262 C 274 252 274 234 256 250 Z" fill="#e0473c" stroke="#1a1a1a" stroke-width="3" stroke-linejoin="round"/>
</svg>
