<svg data-cover="arms:covered" xmlns="http://www.w3.org/2000/svg" viewBox="33.94 46.74 444.12 444.12"><metadata id="sah">{"v":1,"fig":[["h1","fa"],["h2","ma"]]}</metadata>
<line x1="70" y1="455" x2="442" y2="455" stroke="#9aa7b5" stroke-width="5" stroke-linecap="round"/>
<path d="M 138.0 197.0 L 198.0 197.0 L 198.0 287.0 L 224.0 389.0 L 112.0 389.0 L 138.0 287.0 Z" fill="#3d8a6b" stroke="#1a1a1a" stroke-width="5" stroke-linejoin="round"/>
<line x1="150" y1="389" x2="144" y2="455" stroke="#1a1a1a" stroke-width="13.0" stroke-linecap="round"/>
<line x1="186" y1="389" x2="192" y2="455" stroke="#1a1a1a" stroke-width="13.0" stroke-linecap="round"/>
<ellipse cx="144" cy="457" rx="13" ry="7" fill="#33373d"/>
<ellipse cx="192" cy="457" rx="13" ry="7" fill="#33373d"/>
<line x1="138" y1="199" x2="122" y2="305" stroke="#1a1a1a" stroke-width="13.0" stroke-linecap="round"/>
<line x1="198" y1="199" x2="226" y2="151" stroke="#1a1a1a" stroke-width="13.0" stroke-linecap="round"/>
<line x1="168" y1="197" x2="168" y2="166" stroke="#1a1a1a" stroke-width="13.0" stroke-linecap="round"/>
<path d="M 121.0 184.0 L 121.0 128.0 Q 121.0 76.0 168 76.0 Q 215.0 76.0 215.0 128.0 L 215.0 184.0 L 202.0 184.0 L 202.0 130.0 Q 202.0 96.0 168 96.0 Q 134.0 96.0 134.0 130.0 L 134.0 184.0 Z" fill="#5a3a1f" stroke="#1a1a1a" stroke-width="3" stroke-linejoin="round"/>
<path d="M 142.0 305 L 166.0 305 L 162.0 455 L 138.0 455 Z" fill="#f6efe2" stroke="#1a1a1a" stroke-width="3" stroke-linejoin="round"/>
<path d="M 170.0 305 L 194.0 305 L 198.0 455 L 174.0 455 Z" fill="#f6efe2" stroke="#1a1a1a" stroke-width="3" stroke-linejoin="round"/>
<path d="M 138.0 197 L 198.0 197 L 196.0 305 L 198.0 449 L 176.0 449 L 174.0 311 L 162.0 311 L 160.0 449 L 138.0 449 L 140.0 305 Z" fill="#d24a8a" stroke="#1a1a1a" stroke-width="4" stroke-linejoin="round"/>
<path d="M 158.0 199 Q 168.0 191 178.0 199" fill="none" stroke="#b83a72" stroke-width="5" stroke-linejoin="round"/>
<path d="M 168.0 205 L 192.0 215" fill="none" stroke="#b83a72" stroke-width="2" stroke-linejoin="round"/>
<circle cx="168" cy="221" r="2" fill="#f2c14e" stroke="#1a1a1a" stroke-width="0"/>
<circle cx="168" cy="243" r="2" fill="#f2c14e" stroke="#1a1a1a" stroke-width="0"/>
<circle cx="168" cy="265" r="2" fill="#f2c14e" stroke="#1a1a1a" stroke-width="0"/>
<circle cx="168" cy="287" r="2" fill="#f2c14e" stroke="#1a1a1a" stroke-width="0"/>
<line x1="138" y1="199" x2="122" y2="305" stroke="#ffffff" stroke-width="20" stroke-linecap="round"/>
<line x1="138" y1="199" x2="122" y2="305" stroke="#1a1a1a" stroke-width="13.0" stroke-linecap="round"/>
<path d="M 121.0 184.0 L 121.0 128.0 Q 121.0 76.0 168.0 76.0 Q 215.0 76.0 215.0 128.0 L 215.0 184.0 L 202.0 184.0 L 202.0 130.0 Q 202.0 96.0 168.0 96.0 Q 134.0 96.0 134.0 130.0 L 134.0 184.0 Z" fill="#241c14" stroke="#1a1a1a" stroke-width="3"/>
<circle id="h1" data-fig="fa" class="skin" cx="168" cy="130" r="40" fill="#f5d6b0" stroke="#1a1a1a" stroke-width="6"/>
<path d="M 130.0 96.0 Q 168.0 82.0 206.0 96.0 Q 168.0 92.0 130.0 96.0 Z" fill="#241c14" stroke="#1a1a1a" stroke-width="3"/>
<ellipse cx="168" cy="92" rx="46" ry="10" fill="#b8923f" stroke="#1a1a1a" stroke-width="4"/>
<path d="M 124.0 92 L 168.0 50 L 212.0 92 Z" fill="#e3c374" stroke="#1a1a1a" stroke-width="4" stroke-linejoin="round"/>
<line x1="168" y1="92" x2="168" y2="164" stroke="#b83a72" stroke-width="2" stroke-linecap="round"/>
<line x1="315" y1="303" x2="306" y2="455" stroke="#39425c" stroke-width="16.0" stroke-linecap="round"/>
<line x1="345" y1="303" x2="354" y2="455" stroke="#39425c" stroke-width="16.0" stroke-linecap="round"/>
<ellipse cx="306" cy="457" rx="13" ry="7" fill="#33373d"/>
<ellipse cx="354" cy="457" rx="13" ry="7" fill="#33373d"/>
<polygon points="298,197 362,197 360,305 300,305" fill="#2b6fb0" stroke="#1a1a1a" stroke-width="5" stroke-linejoin="round"/>
<line x1="300" y1="199" x2="280" y2="305" stroke="#1a1a1a" stroke-width="13.0" stroke-linecap="round"/>
<line x1="360" y1="199" x2="380" y2="305" stroke="#1a1a1a" stroke-width="13.0" stroke-linecap="round"/>
<line x1="330" y1="197" x2="330" y2="166" stroke="#1a1a1a" stroke-width="13.0" stroke-linecap="round"/>
<path d="M 304.0 305 L 328.0 305 L 324.0 455 L 300.0 455 Z" fill="#3a4a63" stroke="#1a1a1a" stroke-width="3" stroke-linejoin="round"/>
<path d="M 332.0 305 L 356.0 305 L 360.0 455 L 336.0 455 Z" fill="#3a4a63" stroke="#1a1a1a" stroke-width="3" stroke-linejoin="round"/>
<path d="M 300.0 197 L 360.0 197 L 364.0 375 L 296.0 375 Z" fill="#2a5a8a" stroke="#1a1a1a" stroke-width="4" stroke-linejoin="round"/>
<path d="M 320.0 199 Q 330.0 191 340.0 199" fill="none" stroke="#1f4368" stroke-width="5" stroke-linejoin="round"/>
<path d="M 330.0 205 L 354.0 215" fill="none" stroke="#1f4368" stroke-width="2" stroke-linejoin="round"/>
<line x1="330" y1="205" x2="330" y2="369" stroke="#1f4368" stroke-width="2" stroke-linecap="round"/>
<line x1="300" y1="199" x2="280" y2="305" stroke="#ffffff" stroke-width="20" stroke-linecap="round"/>
<line x1="300" y1="199" x2="280" y2="305" stroke="#1a1a1a" stroke-width="13.0" stroke-linecap="round"/>
<line x1="360" y1="199" x2="380" y2="305" stroke="#ffffff" stroke-width="20" stroke-linecap="round"/>
<line x1="360" y1="199" x2="380" y2="305" stroke="#1a1a1a" stroke-width="13.0" stroke-linecap="round"/>
<circle id="h2" data-fig="ma" class="skin" cx="330" cy="130" r="40" fill="#f5d6b0" stroke="#1a1a1a" stroke-width="6"/>
<path d="M 290.0 130.0 Q 290.0 80.0 330 80.0 Q 370.0 80.0 370.0 130.0 Q 330 103.0 290.0 130.0 Z" fill="#241c14" stroke="#1a1a1a" stroke-width="3" stroke-linejoin="round"/>
<path d="M 286.0 134 Q 284.0 66 330.0 66 Q 376.0 66 374.0 134 Q 330.0 98 286.0 134 Z" fill="#2a5a8a" stroke="#1a1a1a" stroke-width="4" stroke-linejoin="round"/>
<path d="M 288.0 128 Q 330.0 92 372.0 128" fill="none" stroke="#9e4d22" stroke-width="3" stroke-linejoin="round"/>
<path d="M 318.0 68 Q 330.0 60 342.0 68" fill="none" stroke="#2a5a8a" stroke-width="6" stroke-linejoin="round"/>
<rect x="381" y="391" width="46" height="60" rx="6" fill="#c0623a" stroke="#1a1a1a" stroke-width="4"/>
<rect x="387" y="405" width="34" height="4" rx="0" fill="#7a3c20" stroke="#1a1a1a" stroke-width="0"/>
<rect x="391" y="379" width="26" height="14" rx="6" fill="none" stroke="#1a1a1a" stroke-width="4"/>
<circle cx="390" cy="455" r="5" fill="#33373d" stroke="#1a1a1a" stroke-width="2"/>
<circle cx="418" cy="455" r="5" fill="#33373d" stroke="#1a1a1a" stroke-width="2"/>
<path d="M 256 160 C 223 132 223 165 256 183 C 289 165 289 132 256 160 Z" fill="#e0473c" stroke="#1a1a1a" stroke-width="3" stroke-linejoin="round"/>
</svg>
