<svg xmlns="http://www.w3.org/2000/svg" viewBox="2.91 36.19 506.18 506.18"><metadata id="sah">{"v":1,"fig":[["h1","mc"],["h2","mc"]]}</metadata>
<rect x="223" y="286" width="66" height="104" rx="0" fill="#f5d6b0" stroke="#1a1a1a" stroke-width="5"/>
<path d="M 88 512 Q 104 360 200 352 L 312 352 Q 408 360 424 512 Z" fill="#3d8a6b" stroke="#1a1a1a" stroke-width="5" stroke-linejoin="round"/>
<rect x="223" y="286" width="66" height="40" rx="0" fill="#f5d6b0" stroke="#1a1a1a" stroke-width="0"/>
<circle id="h1" data-fig="mc" cx="140" cy="224" r="22" fill="#f5d6b0" stroke="#1a1a1a" stroke-width="5"/>
<circle id="h2" data-fig="mc" cx="372" cy="224" r="22" fill="#f5d6b0" stroke="#1a1a1a" stroke-width="5"/>
<circle cx="256" cy="212" r="120" fill="#f5d6b0" stroke="#1a1a1a" stroke-width="5"/>
<path d="M 138 192 Q 156 74 256 70 Q 356 74 374 192 Q 342 126 256 114 Q 170 126 138 192 Z" fill="#241c14" stroke="#1a1a1a" stroke-width="4" stroke-linejoin="round"/>
<g transform="translate(-512 -210) scale(3)"><path d="M 212 134 Q 210 66 256 66 Q 302 66 300 134 Q 256 98 212 134 Z" fill="#2a5a8a" stroke="#1a1a1a" stroke-width="4" stroke-linejoin="round" vector-effect="non-scaling-stroke"/><path d="M 214 128 Q 256 92 298 128" fill="none" stroke="#9e4d22" stroke-width="3" stroke-linejoin="round" vector-effect="non-scaling-stroke"/><path d="M 244 68 Q 256 60 268 68" fill="none" stroke="#2a5a8a" stroke-width="6" stroke-linejoin="round" vector-effect="non-scaling-stroke"/></g>
<path d="M 194 166 Q 212 152 230 162" fill="none" stroke="#1a1a1a" stroke-width="5" stroke-linejoin="round"/>
<path d="M 282 162 Q 300 152 318 166" fill="none" stroke="#1a1a1a" stroke-width="5" stroke-linejoin="round"/>
<circle cx="212" cy="202" r="18" fill="#fff" stroke="#1a1a1a" stroke-width="3"/>
<circle cx="300" cy="202" r="18" fill="#fff" stroke="#1a1a1a" stroke-width="3"/>
<circle cx="214" cy="206" r="7" fill="#1a1a1a" stroke="#1a1a1a" stroke-width="0"/>
<circle cx="302" cy="206" r="7" fill="#1a1a1a" stroke="#1a1a1a" stroke-width="0"/>
<path d="M 220 266 Q 256 296 292 266" fill="none" stroke="#1a1a1a" stroke-width="6" stroke-linejoin="round"/>
<circle cx="176" cy="392" r="26" fill="#7ec8a0" stroke="#1a1a1a" stroke-width="3"/>
<line x1="176" y1="380" x2="168" y2="404" stroke="#ffffff" stroke-width="6" stroke-linecap="round"/>
<line x1="176" y1="380" x2="184" y2="404" stroke="#ffffff" stroke-width="6" stroke-linecap="round"/>
<line x1="171" y1="394" x2="181" y2="394" stroke="#ffffff" stroke-width="6" stroke-linecap="round"/>
<rect x="296" y="372" width="64" height="46" rx="3" fill="#3f6fb0" stroke="#1a1a1a" stroke-width="3"/>
<line x1="328" y1="372" x2="328" y2="418" stroke="#ffffff" stroke-width="3" stroke-linecap="round"/>
<line x1="304" y1="384" x2="322" y2="384" stroke="#ffffff" stroke-width="2" stroke-linecap="round"/>
<line x1="334" y1="384" x2="352" y2="384" stroke="#ffffff" stroke-width="2" stroke-linecap="round"/>
<line x1="304" y1="396" x2="322" y2="396" stroke="#ffffff" stroke-width="2" stroke-linecap="round"/>
<line x1="334" y1="396" x2="352" y2="396" stroke="#ffffff" stroke-width="2" stroke-linecap="round"/>
</svg>
