<svg data-cover="arms:covered" xmlns="http://www.w3.org/2000/svg" viewBox="47.09 52.21 438.30 438.30"><metadata id="sah">{"v":1,"fig":[["h1","fa"]]}</metadata>
<line x1="120" y1="452" x2="392" y2="452" stroke="#9aa7b5" stroke-width="5" stroke-linecap="round"/>
<line x1="248" y1="305" x2="208" y2="448" stroke="#39425c" stroke-width="16.0" stroke-linecap="round"/>
<ellipse cx="204" cy="453" rx="14" ry="7" fill="#33373d"/>
<line x1="262" y1="305" x2="300" y2="448" stroke="#39425c" stroke-width="16.0" stroke-linecap="round"/>
<ellipse cx="306" cy="453" rx="14" ry="7" fill="#33373d"/>
<line x1="268" y1="216" x2="286" y2="294" stroke="#1a1a1a" stroke-width="13.0" stroke-linecap="round"/>
<path d="M 268 112 Q 296 122 290 206 Q 284 240 268 226 Q 282 182 260 142 Z" fill="#5a3a1f" stroke="#1a1a1a" stroke-width="3" stroke-linejoin="round"/>
<polygon points="232,200 282,200 270,308 244,308" fill="#d24a8a" stroke="#1a1a1a" stroke-width="5" stroke-linejoin="round"/>
<line x1="246" y1="216" x2="226" y2="296" stroke="#1a1a1a" stroke-width="13.0" stroke-linecap="round"/>
<line x1="256" y1="200" x2="252" y2="170" stroke="#1a1a1a" stroke-width="13.0" stroke-linecap="round"/>
<path d="M 220.0 197 L 288.0 197 L 286.0 335 L 222.0 335 Z" fill="#d24a8a" stroke="#1a1a1a" stroke-width="4"/>
<path d="M 244.0 199 Q 254.0 191 264.0 199" fill="none" stroke="#b83a72" stroke-width="5" stroke-linejoin="round"/>
<path d="M 254.0 205 L 278.0 215" fill="none" stroke="#b83a72" stroke-width="2" stroke-linejoin="round"/>
<circle cx="254" cy="221" r="2" fill="#f2c14e" stroke="#1a1a1a" stroke-width="0"/>
<circle cx="254" cy="243" r="2" fill="#f2c14e" stroke="#1a1a1a" stroke-width="0"/>
<circle cx="254" cy="265" r="2" fill="#f2c14e" stroke="#1a1a1a" stroke-width="0"/>
<circle cx="254" cy="287" r="2" fill="#f2c14e" stroke="#1a1a1a" stroke-width="0"/>
<line x1="268" y1="216" x2="286" y2="294" stroke="#ffffff" stroke-width="20" stroke-linecap="round"/>
<line x1="268" y1="216" x2="286" y2="294" stroke="#1a1a1a" stroke-width="13.0" stroke-linecap="round"/>
<line x1="246" y1="216" x2="226" y2="296" stroke="#ffffff" stroke-width="20" stroke-linecap="round"/>
<line x1="246" y1="216" x2="226" y2="296" stroke="#1a1a1a" stroke-width="13.0" stroke-linecap="round"/>
<path d="M 207.0 184.0 L 207.0 128.0 Q 207.0 76.0 254.0 76.0 Q 301.0 76.0 301.0 128.0 L 301.0 184.0 L 288.0 184.0 L 288.0 130.0 Q 288.0 96.0 254.0 96.0 Q 220.0 96.0 220.0 130.0 L 220.0 184.0 Z" fill="#241c14" stroke="#1a1a1a" stroke-width="3"/>
<circle id="h1" data-fig="fa" class="skin" cx="254" cy="130" r="40" fill="#f5d6b0" stroke="#1a1a1a" stroke-width="6"/>

<path d="M 216.0 96.0 Q 254.0 82.0 292.0 96.0 Q 254.0 92.0 216.0 96.0 Z" fill="#241c14" stroke="#1a1a1a" stroke-width="3"/>
<ellipse cx="254" cy="92" rx="46" ry="10" fill="#b8923f" stroke="#1a1a1a" stroke-width="4"/>
<path d="M 210.0 92 L 254.0 50 L 298.0 92 Z" fill="#e3c374" stroke="#1a1a1a" stroke-width="4" stroke-linejoin="round"/>
<line x1="254" y1="92" x2="254" y2="164" stroke="#b83a72" stroke-width="2" stroke-linecap="round"/>
</svg>
