<svg data-cover="arms:covered" xmlns="http://www.w3.org/2000/svg" viewBox="45.38 52.21 438.30 438.30"><metadata id="sah">{"v":1,"fig":[["h1","fa"]]}</metadata>
<rect x="346" y="120" width="28" height="335" rx="3" fill="#fff3d0" stroke="#1a1a1a" stroke-width="4"/>
<line x1="346" y1="120" x2="362" y2="120" stroke="#1a1a1a" stroke-width="3" stroke-linecap="round"/>
<line x1="346" y1="168" x2="355" y2="168" stroke="#1a1a1a" stroke-width="3" stroke-linecap="round"/>
<line x1="346" y1="216" x2="362" y2="216" stroke="#1a1a1a" stroke-width="3" stroke-linecap="round"/>
<line x1="346" y1="264" x2="355" y2="264" stroke="#1a1a1a" stroke-width="3" stroke-linecap="round"/>
<line x1="346" y1="311" x2="362" y2="311" stroke="#1a1a1a" stroke-width="3" stroke-linecap="round"/>
<line x1="346" y1="359" x2="355" y2="359" stroke="#1a1a1a" stroke-width="3" stroke-linecap="round"/>
<line x1="346" y1="407" x2="362" y2="407" stroke="#1a1a1a" stroke-width="3" stroke-linecap="round"/>
<line x1="346" y1="455" x2="355" y2="455" stroke="#1a1a1a" stroke-width="3" stroke-linecap="round"/>
<line x1="195" y1="303" x2="186" y2="455" stroke="#39425c" stroke-width="16.0" stroke-linecap="round"/>
<line x1="225" y1="303" x2="234" y2="455" stroke="#39425c" stroke-width="16.0" stroke-linecap="round"/>
<ellipse cx="186" cy="457" rx="13" ry="7" fill="#33373d"/>
<ellipse cx="234" cy="457" rx="13" ry="7" fill="#33373d"/>
<polygon points="178,197 242,197 240,305 180,305" fill="#d24a8a" stroke="#1a1a1a" stroke-width="5" stroke-linejoin="round"/>
<line x1="180" y1="199" x2="160" y2="305" stroke="#1a1a1a" stroke-width="13.0" stroke-linecap="round"/>
<line x1="240" y1="199" x2="260" y2="305" stroke="#1a1a1a" stroke-width="13.0" stroke-linecap="round"/>
<line x1="210" y1="197" x2="210" y2="166" stroke="#1a1a1a" stroke-width="13.0" stroke-linecap="round"/>
<path d="M 163.0 184.0 L 163.0 128.0 Q 163.0 76.0 210.0 76.0 Q 257.0 76.0 257.0 128.0 L 257.0 184.0 L 244.0 184.0 L 244.0 130.0 Q 244.0 96.0 210.0 96.0 Q 176.0 96.0 176.0 130.0 L 176.0 184.0 Z" fill="#5a3a1f" stroke="#1a1a1a" stroke-width="3"/>
<path d="M 184.0 305 L 208.0 305 L 204.0 455 L 180.0 455 Z" fill="#f6efe2" stroke="#1a1a1a" stroke-width="3" stroke-linejoin="round"/>
<path d="M 212.0 305 L 236.0 305 L 240.0 455 L 216.0 455 Z" fill="#f6efe2" stroke="#1a1a1a" stroke-width="3" stroke-linejoin="round"/>
<path d="M 180.0 197 L 240.0 197 L 238.0 305 L 240.0 449 L 218.0 449 L 216.0 311 L 204.0 311 L 202.0 449 L 180.0 449 L 182.0 305 Z" fill="#d24a8a" stroke="#1a1a1a" stroke-width="4" stroke-linejoin="round"/>
<path d="M 200.0 199 Q 210.0 191 220.0 199" fill="none" stroke="#b83a72" stroke-width="5" stroke-linejoin="round"/>
<path d="M 210.0 205 L 234.0 215" fill="none" stroke="#b83a72" stroke-width="2" stroke-linejoin="round"/>
<circle cx="210" cy="221" r="2" fill="#f2c14e" stroke="#1a1a1a" stroke-width="0"/>
<circle cx="210" cy="243" r="2" fill="#f2c14e" stroke="#1a1a1a" stroke-width="0"/>
<circle cx="210" cy="265" r="2" fill="#f2c14e" stroke="#1a1a1a" stroke-width="0"/>
<circle cx="210" cy="287" r="2" fill="#f2c14e" stroke="#1a1a1a" stroke-width="0"/>
<line x1="180" y1="199" x2="160" y2="305" stroke="#ffffff" stroke-width="20" stroke-linecap="round"/>
<line x1="180" y1="199" x2="160" y2="305" stroke="#1a1a1a" stroke-width="13.0" stroke-linecap="round"/>
<line x1="240" y1="199" x2="260" y2="305" stroke="#ffffff" stroke-width="20" stroke-linecap="round"/>
<line x1="240" y1="199" x2="260" y2="305" stroke="#1a1a1a" stroke-width="13.0" stroke-linecap="round"/>
<path d="M 163.0 184.0 L 163.0 128.0 Q 163.0 76.0 210.0 76.0 Q 257.0 76.0 257.0 128.0 L 257.0 184.0 L 244.0 184.0 L 244.0 130.0 Q 244.0 96.0 210.0 96.0 Q 176.0 96.0 176.0 130.0 L 176.0 184.0 Z" fill="#241c14" stroke="#1a1a1a" stroke-width="3"/>
<circle id="h1" data-fig="fa" class="skin" cx="210" cy="130" r="40" fill="#f5d6b0" stroke="#1a1a1a" stroke-width="6"/>
<path d="M 172.0 96.0 Q 210.0 82.0 248.0 96.0 Q 210.0 92.0 172.0 96.0 Z" fill="#241c14" stroke="#1a1a1a" stroke-width="3"/>
<ellipse cx="210" cy="92" rx="46" ry="10" fill="#b8923f" stroke="#1a1a1a" stroke-width="4"/>
<path d="M 166.0 92 L 210.0 50 L 254.0 92 Z" fill="#e3c374" stroke="#1a1a1a" stroke-width="4" stroke-linejoin="round"/>
<line x1="210" y1="92" x2="210" y2="164" stroke="#b83a72" stroke-width="2" stroke-linecap="round"/>
<line x1="346" y1="250" x2="374" y2="250" stroke="#c0573a" stroke-width="5" stroke-linecap="round"/>
<line x1="346" y1="138" x2="374" y2="138" stroke="#1a1a1a" stroke-width="12.0" stroke-linecap="round"/><line x1="330" y1="250" x2="330" y2="146" stroke="#1a1a1a" stroke-width="18.0" stroke-linecap="round"/><line x1="330" y1="146" x2="313" y2="165" stroke="#1a1a1a" stroke-width="18.0" stroke-linecap="round"/><line x1="330" y1="146" x2="347" y2="165" stroke="#1a1a1a" stroke-width="18.0" stroke-linecap="round"/><line x1="346" y1="138" x2="374" y2="138" stroke="#2f9e4a" stroke-width="6.5" stroke-linecap="round"/>
<line x1="330" y1="250" x2="330" y2="146" stroke="#2f9e4a" stroke-width="12.5" stroke-linecap="round"/>
<line x1="330" y1="146" x2="313" y2="165" stroke="#2f9e4a" stroke-width="12.5" stroke-linecap="round"/>
<line x1="330" y1="146" x2="347" y2="165" stroke="#2f9e4a" stroke-width="12.5" stroke-linecap="round"/>
</svg>
