<svg data-cover="arms:covered" xmlns="http://www.w3.org/2000/svg" viewBox="0 0 512 512" data-copyright="© 2026 Sensory App House"><!--SAH-COPYRIGHT © 2026 Sensory App House. All rights reserved.--><metadata id="sah-copyright"><rdf:RDF xmlns:rdf="http://www.w3.org/1999/02/22-rdf-syntax-ns#" xmlns:dc="http://purl.org/dc/elements/1.1/" xmlns:cc="http://creativecommons.org/ns#"><cc:Work rdf:about=""><dc:rights><cc:Agent><dc:title>© 2026 Sensory App House. All rights reserved.</dc:title></cc:Agent></dc:rights><dc:creator><cc:Agent><dc:title>Sensory App House (PiCom)</dc:title></cc:Agent></dc:creator><dc:date>2026</dc:date></cc:Work></rdf:RDF></metadata><metadata id="sah">{"v":1,"fig":[["h1","fa"],["h2","ma"]]}</metadata><g data-fit="1" transform="translate(256 256) scale(1.1553) translate(-252.00 -284.00)">
<path d="M 300.0 212.0 L 360.0 212.0 L 360.0 302.0 L 386.0 404.0 L 274.0 404.0 L 300.0 302.0 Z" fill="#e0843a" stroke="#1a1a1a" stroke-width="5" stroke-linejoin="round"/>
<line x1="312" y1="404" x2="306" y2="470" stroke="#1a1a1a" stroke-width="13.0" stroke-linecap="round"/>
<line x1="348" y1="404" x2="354" y2="470" stroke="#1a1a1a" stroke-width="13.0" stroke-linecap="round"/>
<ellipse cx="306" cy="472" rx="13" ry="7" fill="#33373d"/>
<ellipse cx="354" cy="472" rx="13" ry="7" fill="#33373d"/>
<line x1="300" y1="214" x2="280" y2="320" stroke="#1a1a1a" stroke-width="13.0" stroke-linecap="round"/>
<line x1="360" y1="214" x2="380" y2="320" stroke="#1a1a1a" stroke-width="13.0" stroke-linecap="round"/>
<line x1="330" y1="212" x2="330" y2="181" stroke="#1a1a1a" stroke-width="13.0" stroke-linecap="round"/>
<path d="M 283.0 199.0 L 283.0 143.0 Q 283.0 91.0 330 91.0 Q 377.0 91.0 377.0 143.0 L 377.0 199.0 L 364.0 199.0 L 364.0 145.0 Q 364.0 111.0 330 111.0 Q 296.0 111.0 296.0 145.0 L 296.0 199.0 Z" fill="#5a3a1f" stroke="#1a1a1a" stroke-width="3" stroke-linejoin="round"/>
<g transform="translate(0,15)"><path d="M 296.0 197 L 364.0 197 L 362.0 335 L 298.0 335 Z" fill="#d24a8a" stroke="#1a1a1a" stroke-width="4"/>
<path d="M 320.0 199 Q 330.0 191 340.0 199" fill="none" stroke="#b83a72" stroke-width="5" stroke-linejoin="round"/>
<path d="M 330.0 205 L 354.0 215" fill="none" stroke="#b83a72" stroke-width="2" stroke-linejoin="round"/>
<circle cx="330" cy="221" r="2" fill="#f2c14e" stroke="#1a1a1a" stroke-width="0"/>
<circle cx="330" cy="243" r="2" fill="#f2c14e" stroke="#1a1a1a" stroke-width="0"/>
<circle cx="330" cy="265" r="2" fill="#f2c14e" stroke="#1a1a1a" stroke-width="0"/>
<circle cx="330" cy="287" r="2" fill="#f2c14e" stroke="#1a1a1a" stroke-width="0"/></g>
<line x1="300" y1="214" x2="280" y2="320" stroke="#ffffff" stroke-width="20" stroke-linecap="round"/>
<line x1="300" y1="214" x2="280" y2="320" stroke="#1a1a1a" stroke-width="13.0" stroke-linecap="round"/>
<line x1="360" y1="214" x2="380" y2="320" stroke="#ffffff" stroke-width="20" stroke-linecap="round"/>
<line x1="360" y1="214" x2="380" y2="320" stroke="#1a1a1a" stroke-width="13.0" stroke-linecap="round"/>
<path d="M 283.0 199.0 L 283.0 143.0 Q 283.0 91.0 330.0 91.0 Q 377.0 91.0 377.0 143.0 L 377.0 199.0 L 364.0 199.0 L 364.0 145.0 Q 364.0 111.0 330.0 111.0 Q 296.0 111.0 296.0 145.0 L 296.0 199.0 Z" fill="#241c14" stroke="#1a1a1a" stroke-width="3"/>
<circle id="h1" data-fig="fa" class="skin" cx="330" cy="145" r="40" fill="#f5d6b0" stroke="#1a1a1a" stroke-width="6"/>
<path d="M 292.0 111.0 Q 330.0 97.0 368.0 111.0 Q 330.0 107.0 292.0 111.0 Z" fill="#241c14" stroke="#1a1a1a" stroke-width="3"/>
<g transform="translate(0,15)"><ellipse cx="330" cy="92" rx="46" ry="10" fill="#b8923f" stroke="#1a1a1a" stroke-width="4"/>
<path d="M 286.0 92 L 330.0 50 L 374.0 92 Z" fill="#e3c374" stroke="#1a1a1a" stroke-width="4" stroke-linejoin="round"/>
<line x1="330" y1="92" x2="330" y2="164" stroke="#b83a72" stroke-width="2" stroke-linecap="round"/></g>
<circle cx="317" cy="142" r="4" fill="#1a1a1a" stroke="#1a1a1a" stroke-width="0"/>
<circle cx="343" cy="142" r="4" fill="#1a1a1a" stroke="#1a1a1a" stroke-width="0"/>
<path d="M 316.0 167.0 Q 330 153.0 344.0 167.0" fill="none" stroke="#1a1a1a" stroke-width="4" stroke-linejoin="round"/>
<line x1="153" y1="318" x2="144" y2="470" stroke="#39425c" stroke-width="16.0" stroke-linecap="round"/>
<line x1="183" y1="318" x2="192" y2="470" stroke="#39425c" stroke-width="16.0" stroke-linecap="round"/>
<ellipse cx="144" cy="472" rx="13" ry="7" fill="#33373d"/>
<ellipse cx="192" cy="472" rx="13" ry="7" fill="#33373d"/>
<polygon points="136,212 200,212 198,320 138,320" fill="#2a5a8a" stroke="#1a1a1a" stroke-width="5" stroke-linejoin="round"/>
<line x1="138" y1="214" x2="122" y2="320" stroke="#1a1a1a" stroke-width="13.0" stroke-linecap="round"/>
<line x1="168" y1="212" x2="168" y2="181" stroke="#1a1a1a" stroke-width="13.0" stroke-linecap="round"/>
<g transform="translate(0,15)"><path d="M 134.0 197 L 202.0 197 L 200.0 335 L 136.0 335 Z" fill="#2a5a8a" stroke="#1a1a1a" stroke-width="4"/>
<path d="M 158.0 199 Q 168.0 191 178.0 199" fill="none" stroke="#1f4368" stroke-width="5" stroke-linejoin="round"/>
<path d="M 168.0 205 L 192.0 215" fill="none" stroke="#1f4368" stroke-width="2" stroke-linejoin="round"/></g>
<line x1="138" y1="214" x2="122" y2="320" stroke="#ffffff" stroke-width="20" stroke-linecap="round"/>
<line x1="138" y1="214" x2="122" y2="320" stroke="#1a1a1a" stroke-width="13.0" stroke-linecap="round"/>
<circle id="h2" data-fig="ma" class="skin" cx="168" cy="145" r="40" fill="#f5d6b0" stroke="#1a1a1a" stroke-width="6"/>
<path d="M 128.0 145.0 Q 128.0 95.0 168 95.0 Q 208.0 95.0 208.0 145.0 Q 168 118.0 128.0 145.0 Z" fill="#241c14" stroke="#1a1a1a" stroke-width="3" stroke-linejoin="round"/>
<g transform="translate(0,15)"><path d="M 124.0 134 Q 122.0 66 168.0 66 Q 214.0 66 212.0 134 Q 168.0 98 124.0 134 Z" fill="#2a5a8a" stroke="#1a1a1a" stroke-width="4" stroke-linejoin="round"/>
<path d="M 126.0 128 Q 168.0 92 210.0 128" fill="none" stroke="#9e4d22" stroke-width="3" stroke-linejoin="round"/>
<path d="M 156.0 68 Q 168.0 60 180.0 68" fill="none" stroke="#2a5a8a" stroke-width="6" stroke-linejoin="round"/></g>
<circle cx="155" cy="142" r="4" fill="#1a1a1a" stroke="#1a1a1a" stroke-width="0"/>
<circle cx="181" cy="142" r="4" fill="#1a1a1a" stroke="#1a1a1a" stroke-width="0"/>
<path d="M 154.0 159.0 Q 168 175.0 182.0 159.0" fill="none" stroke="#1a1a1a" stroke-width="4" stroke-linejoin="round"/>
<path d="M 198.0 214.0 Q 251 184 304 220.0" fill="none" stroke="#f5d6b0" stroke-width="13" stroke-linecap="round"/>
<circle cx="304" cy="220" r="12" fill="#f5d6b0" stroke="#1a1a1a" stroke-width="4"/>
<path d="M 364.0 149.0 q 7 12 0 22 q -7 -10 0 -22 Z" fill="#7ec8f0" stroke="#1a1a1a" stroke-width="2" stroke-linejoin="round"/>
<path d="M 256 190 C 230 168 230 194 256 208 C 282 194 282 168 256 190 Z" fill="#e0473c" stroke="#1a1a1a" stroke-width="3" stroke-linejoin="round"/>
</g></svg>
