<svg data-cover="arms:covered" xmlns="http://www.w3.org/2000/svg" viewBox="40.26 52.21 438.30 438.30"><metadata id="sah">{"v":1,"fig":[["h1","fa"]]}</metadata>
<line x1="120" y1="455" x2="392" y2="455" stroke="#9aa7b5" stroke-width="5" stroke-linecap="round"/>
<line x1="153" y1="303" x2="144" y2="455" stroke="#39425c" stroke-width="16.0" stroke-linecap="round"/>
<line x1="183" y1="303" x2="192" y2="455" stroke="#39425c" stroke-width="16.0" stroke-linecap="round"/>
<ellipse cx="144" cy="457" rx="13" ry="7" fill="#33373d"/>
<ellipse cx="192" cy="457" rx="13" ry="7" fill="#33373d"/>
<polygon points="136,197 200,197 198,305 138,305" fill="#d24a8a" stroke="#1a1a1a" stroke-width="5" stroke-linejoin="round"/>
<line x1="138" y1="199" x2="122" y2="305" stroke="#1a1a1a" stroke-width="13.0" stroke-linecap="round"/>
<line x1="198" y1="199" x2="232" y2="143" stroke="#1a1a1a" stroke-width="13.0" stroke-linecap="round"/>
<line x1="168" y1="197" x2="168" y2="166" stroke="#1a1a1a" stroke-width="13.0" stroke-linecap="round"/>
<path d="M 121.0 184.0 L 121.0 128.0 Q 121.0 76.0 168.0 76.0 Q 215.0 76.0 215.0 128.0 L 215.0 184.0 L 202.0 184.0 L 202.0 130.0 Q 202.0 96.0 168.0 96.0 Q 134.0 96.0 134.0 130.0 L 134.0 184.0 Z" fill="#5a3a1f" stroke="#1a1a1a" stroke-width="3"/>
<path d="M 142.0 305 L 166.0 305 L 162.0 455 L 138.0 455 Z" fill="#f6efe2" stroke="#1a1a1a" stroke-width="3" stroke-linejoin="round"/>
<path d="M 170.0 305 L 194.0 305 L 198.0 455 L 174.0 455 Z" fill="#f6efe2" stroke="#1a1a1a" stroke-width="3" stroke-linejoin="round"/>
<path d="M 138.0 197 L 198.0 197 L 196.0 305 L 198.0 449 L 176.0 449 L 174.0 311 L 162.0 311 L 160.0 449 L 138.0 449 L 140.0 305 Z" fill="#d24a8a" stroke="#1a1a1a" stroke-width="4" stroke-linejoin="round"/>
<path d="M 158.0 199 Q 168.0 191 178.0 199" fill="none" stroke="#b83a72" stroke-width="5" stroke-linejoin="round"/>
<path d="M 168.0 205 L 192.0 215" fill="none" stroke="#b83a72" stroke-width="2" stroke-linejoin="round"/>
<circle cx="168" cy="221" r="2" fill="#f2c14e" stroke="#1a1a1a" stroke-width="0"/>
<circle cx="168" cy="243" r="2" fill="#f2c14e" stroke="#1a1a1a" stroke-width="0"/>
<circle cx="168" cy="265" r="2" fill="#f2c14e" stroke="#1a1a1a" stroke-width="0"/>
<circle cx="168" cy="287" r="2" fill="#f2c14e" stroke="#1a1a1a" stroke-width="0"/>
<line x1="138" y1="199" x2="122" y2="305" stroke="#ffffff" stroke-width="20" stroke-linecap="round"/>
<line x1="138" y1="199" x2="122" y2="305" stroke="#1a1a1a" stroke-width="13.0" stroke-linecap="round"/>
<path d="M 121.0 184.0 L 121.0 128.0 Q 121.0 76.0 168.0 76.0 Q 215.0 76.0 215.0 128.0 L 215.0 184.0 L 202.0 184.0 L 202.0 130.0 Q 202.0 96.0 168.0 96.0 Q 134.0 96.0 134.0 130.0 L 134.0 184.0 Z" fill="#241c14" stroke="#1a1a1a" stroke-width="3"/>
<circle id="h1" data-fig="fa" class="skin" cx="168" cy="130" r="40" fill="#f5d6b0" stroke="#1a1a1a" stroke-width="6"/>
<path d="M 130.0 96.0 Q 168.0 82.0 206.0 96.0 Q 168.0 92.0 130.0 96.0 Z" fill="#241c14" stroke="#1a1a1a" stroke-width="3"/>
<ellipse cx="168" cy="92" rx="46" ry="10" fill="#b8923f" stroke="#1a1a1a" stroke-width="4"/>
<path d="M 124.0 92 L 168.0 50 L 212.0 92 Z" fill="#e3c374" stroke="#1a1a1a" stroke-width="4" stroke-linejoin="round"/>
<line x1="168" y1="92" x2="168" y2="164" stroke="#b83a72" stroke-width="2" stroke-linecap="round"/>
<circle cx="155" cy="127" r="4" fill="#1a1a1a" stroke="#1a1a1a" stroke-width="0"/>
<circle cx="181" cy="127" r="4" fill="#1a1a1a" stroke="#1a1a1a" stroke-width="0"/>
<path d="M 154.0 144.0 Q 168 160.0 182.0 144.0" fill="none" stroke="#1a1a1a" stroke-width="4" stroke-linejoin="round"/>
<rect x="294" y="149" width="108" height="306" rx="4" fill="#7a4a24" stroke="#1a1a1a" stroke-width="4"/>
<rect x="300" y="155" width="96" height="300" rx="3" fill="#b07a3a" stroke="#1a1a1a" stroke-width="4"/>
<rect x="312" y="171" width="72" height="120" rx="0" fill="none" stroke="#8a5a2a" stroke-width="3"/>
<rect x="312" y="306" width="72" height="105" rx="0" fill="none" stroke="#8a5a2a" stroke-width="3"/>
<circle cx="380" cy="305" r="5" fill="#f0c419" stroke="#1a1a1a" stroke-width="2"/>
<path d="M 250.0 131.0 q 14 -4 22 0" fill="none" stroke="#8a8f98" stroke-width="3" stroke-linejoin="round"/>
<path d="M 252.0 145.0 q 16 -2 26 0" fill="none" stroke="#8a8f98" stroke-width="3" stroke-linejoin="round"/>
<path d="M 256 126 C 238 110 238 128 256 138 C 274 128 274 110 256 126 Z" fill="#e0473c" stroke="#1a1a1a" stroke-width="3" stroke-linejoin="round"/>
</svg>
