<svg data-cover="arms:covered" xmlns="http://www.w3.org/2000/svg" viewBox="35.65 46.74 444.12 444.12"><metadata id="sah">{"v":1,"fig":[["h1","fa"],["h2","ma"]]}</metadata>
<path d="M 166.0 197.0 L 226.0 197.0 L 226.0 287.0 L 252.0 389.0 L 140.0 389.0 L 166.0 287.0 Z" fill="#d6529e" stroke="#1a1a1a" stroke-width="5" stroke-linejoin="round"/>
<line x1="178" y1="389" x2="172" y2="455" stroke="#1a1a1a" stroke-width="13.0" stroke-linecap="round"/>
<line x1="214" y1="389" x2="220" y2="455" stroke="#1a1a1a" stroke-width="13.0" stroke-linecap="round"/>
<ellipse cx="172" cy="457" rx="13" ry="7" fill="#33373d"/>
<ellipse cx="220" cy="457" rx="13" ry="7" fill="#33373d"/>
<line x1="166" y1="199" x2="146" y2="305" stroke="#1a1a1a" stroke-width="13.0" stroke-linecap="round"/>
<line x1="226" y1="199" x2="246" y2="305" stroke="#1a1a1a" stroke-width="13.0" stroke-linecap="round"/>
<line x1="196" y1="197" x2="196" y2="166" stroke="#1a1a1a" stroke-width="13.0" stroke-linecap="round"/>
<path d="M 149.0 184.0 L 149.0 128.0 Q 149.0 76.0 196 76.0 Q 243.0 76.0 243.0 128.0 L 243.0 184.0 L 230.0 184.0 L 230.0 130.0 Q 230.0 96.0 196 96.0 Q 162.0 96.0 162.0 130.0 L 162.0 184.0 Z" fill="#5a3a1f" stroke="#1a1a1a" stroke-width="3" stroke-linejoin="round"/>
<path d="M 170.0 305 L 194.0 305 L 190.0 455 L 166.0 455 Z" fill="#f6efe2" stroke="#1a1a1a" stroke-width="3" stroke-linejoin="round"/>
<path d="M 198.0 305 L 222.0 305 L 226.0 455 L 202.0 455 Z" fill="#f6efe2" stroke="#1a1a1a" stroke-width="3" stroke-linejoin="round"/>
<path d="M 166.0 197 L 226.0 197 L 224.0 305 L 226.0 449 L 204.0 449 L 202.0 311 L 190.0 311 L 188.0 449 L 166.0 449 L 168.0 305 Z" fill="#d24a8a" stroke="#1a1a1a" stroke-width="4" stroke-linejoin="round"/>
<path d="M 186.0 199 Q 196.0 191 206.0 199" fill="none" stroke="#b83a72" stroke-width="5" stroke-linejoin="round"/>
<path d="M 196.0 205 L 220.0 215" fill="none" stroke="#b83a72" stroke-width="2" stroke-linejoin="round"/>
<circle cx="196" cy="221" r="2" fill="#f2c14e" stroke="#1a1a1a" stroke-width="0"/>
<circle cx="196" cy="243" r="2" fill="#f2c14e" stroke="#1a1a1a" stroke-width="0"/>
<circle cx="196" cy="265" r="2" fill="#f2c14e" stroke="#1a1a1a" stroke-width="0"/>
<circle cx="196" cy="287" r="2" fill="#f2c14e" stroke="#1a1a1a" stroke-width="0"/>
<line x1="166" y1="199" x2="146" y2="305" stroke="#ffffff" stroke-width="20" stroke-linecap="round"/>
<line x1="166" y1="199" x2="146" y2="305" stroke="#1a1a1a" stroke-width="13.0" stroke-linecap="round"/>
<line x1="226" y1="199" x2="246" y2="305" stroke="#ffffff" stroke-width="20" stroke-linecap="round"/>
<line x1="226" y1="199" x2="246" y2="305" stroke="#1a1a1a" stroke-width="13.0" stroke-linecap="round"/>
<path d="M 149.0 184.0 L 149.0 128.0 Q 149.0 76.0 196.0 76.0 Q 243.0 76.0 243.0 128.0 L 243.0 184.0 L 230.0 184.0 L 230.0 130.0 Q 230.0 96.0 196.0 96.0 Q 162.0 96.0 162.0 130.0 L 162.0 184.0 Z" fill="#241c14" stroke="#1a1a1a" stroke-width="3"/>
<circle id="h1" data-fig="fa" class="skin" cx="196" cy="130" r="40" fill="#f5d6b0" stroke="#1a1a1a" stroke-width="6"/>
<path d="M 158.0 96.0 Q 196.0 82.0 234.0 96.0 Q 196.0 92.0 158.0 96.0 Z" fill="#241c14" stroke="#1a1a1a" stroke-width="3"/>
<ellipse cx="196" cy="92" rx="46" ry="10" fill="#b8923f" stroke="#1a1a1a" stroke-width="4"/>
<path d="M 152.0 92 L 196.0 50 L 240.0 92 Z" fill="#e3c374" stroke="#1a1a1a" stroke-width="4" stroke-linejoin="round"/>
<line x1="196" y1="92" x2="196" y2="164" stroke="#b83a72" stroke-width="2" stroke-linecap="round"/>
<line x1="307" y1="303" x2="298" y2="455" stroke="#39425c" stroke-width="16.0" stroke-linecap="round"/>
<line x1="337" y1="303" x2="346" y2="455" stroke="#39425c" stroke-width="16.0" stroke-linecap="round"/>
<ellipse cx="298" cy="457" rx="13" ry="7" fill="#33373d"/>
<ellipse cx="346" cy="457" rx="13" ry="7" fill="#33373d"/>
<polygon points="290,197 354,197 352,305 292,305" fill="#2a5a8a" stroke="#1a1a1a" stroke-width="5" stroke-linejoin="round"/>
<line x1="292" y1="199" x2="272" y2="305" stroke="#1a1a1a" stroke-width="13.0" stroke-linecap="round"/>
<line x1="352" y1="199" x2="372" y2="305" stroke="#1a1a1a" stroke-width="13.0" stroke-linecap="round"/>
<line x1="322" y1="197" x2="322" y2="166" stroke="#1a1a1a" stroke-width="13.0" stroke-linecap="round"/>
<path d="M 296.0 305 L 320.0 305 L 316.0 455 L 292.0 455 Z" fill="#3a4a63" stroke="#1a1a1a" stroke-width="3" stroke-linejoin="round"/>
<path d="M 324.0 305 L 348.0 305 L 352.0 455 L 328.0 455 Z" fill="#3a4a63" stroke="#1a1a1a" stroke-width="3" stroke-linejoin="round"/>
<path d="M 292.0 197 L 352.0 197 L 356.0 375 L 288.0 375 Z" fill="#2a5a8a" stroke="#1a1a1a" stroke-width="4" stroke-linejoin="round"/>
<path d="M 312.0 199 Q 322.0 191 332.0 199" fill="none" stroke="#1f4368" stroke-width="5" stroke-linejoin="round"/>
<path d="M 322.0 205 L 346.0 215" fill="none" stroke="#1f4368" stroke-width="2" stroke-linejoin="round"/>
<line x1="322" y1="205" x2="322" y2="369" stroke="#1f4368" stroke-width="2" stroke-linecap="round"/>
<line x1="292" y1="199" x2="272" y2="305" stroke="#ffffff" stroke-width="20" stroke-linecap="round"/>
<line x1="292" y1="199" x2="272" y2="305" stroke="#1a1a1a" stroke-width="13.0" stroke-linecap="round"/>
<line x1="352" y1="199" x2="372" y2="305" stroke="#ffffff" stroke-width="20" stroke-linecap="round"/>
<line x1="352" y1="199" x2="372" y2="305" stroke="#1a1a1a" stroke-width="13.0" stroke-linecap="round"/>
<circle id="h2" data-fig="ma" class="skin" cx="322" cy="130" r="40" fill="#f5d6b0" stroke="#1a1a1a" stroke-width="6"/>
<path d="M 282.0 130.0 Q 282.0 80.0 322 80.0 Q 362.0 80.0 362.0 130.0 Q 322 103.0 282.0 130.0 Z" fill="#241c14" stroke="#1a1a1a" stroke-width="3" stroke-linejoin="round"/>
<path d="M 278.0 134 Q 276.0 66 322.0 66 Q 368.0 66 366.0 134 Q 322.0 98 278.0 134 Z" fill="#2a5a8a" stroke="#1a1a1a" stroke-width="4" stroke-linejoin="round"/>
<path d="M 280.0 128 Q 322.0 92 364.0 128" fill="none" stroke="#9e4d22" stroke-width="3" stroke-linejoin="round"/>
<path d="M 310.0 68 Q 322.0 60 334.0 68" fill="none" stroke="#2a5a8a" stroke-width="6" stroke-linejoin="round"/>
<line x1="196" y1="300" x2="300" y2="288" stroke="#39425c" stroke-width="13" stroke-linecap="round"/>
<line x1="322" y1="300" x2="218" y2="288" stroke="#39425c" stroke-width="13" stroke-linecap="round"/>
<path d="M 258 160 C 225 132 225 165 258 183 C 291 165 291 132 258 160 Z" fill="#e0473c" stroke="#1a1a1a" stroke-width="3" stroke-linejoin="round"/>
</svg>
