<svg data-cover="arms:covered" xmlns="http://www.w3.org/2000/svg" viewBox="0 0 512 512" data-copyright="© 2026 Sensory App House"><!--SAH-COPYRIGHT © 2026 Sensory App House. All rights reserved.--><metadata id="sah-copyright"><rdf:RDF xmlns:rdf="http://www.w3.org/1999/02/22-rdf-syntax-ns#" xmlns:dc="http://purl.org/dc/elements/1.1/" xmlns:cc="http://creativecommons.org/ns#"><cc:Work rdf:about=""><dc:rights><cc:Agent><dc:title>© 2026 Sensory App House. All rights reserved.</dc:title></cc:Agent></dc:rights><dc:creator><cc:Agent><dc:title>Sensory App House (PiCom)</dc:title></cc:Agent></dc:creator><dc:date>2026</dc:date></cc:Work></rdf:RDF></metadata><metadata id="sah">{"v":1,"fig":[["h1","fa"],["h2","ma"]]}</metadata><g data-fit="1" transform="translate(256 256) scale(1.1180) translate(-240.50 -266.00)">
<rect x="181" y="300" width="150" height="16" rx="3" fill="#cdd3da" stroke="#1a1a1a" stroke-width="3"/>
<rect x="189" y="316" width="134" height="70" rx="2" fill="#9a6a3a" stroke="#1a1a1a" stroke-width="3"/>
<line x1="256" y1="316" x2="256" y2="386" stroke="#7a4a24" stroke-width="2" stroke-linecap="round"/>
<path d="M 120.0 194.0 L 180.0 194.0 L 180.0 284.0 L 206.0 386.0 L 94.0 386.0 L 120.0 284.0 Z" fill="#3d8a6b" stroke="#1a1a1a" stroke-width="5" stroke-linejoin="round"/>
<line x1="132" y1="386" x2="126" y2="452" stroke="#1a1a1a" stroke-width="13.0" stroke-linecap="round"/>
<line x1="168" y1="386" x2="174" y2="452" stroke="#1a1a1a" stroke-width="13.0" stroke-linecap="round"/>
<ellipse cx="126" cy="454" rx="13" ry="7" fill="#33373d"/>
<ellipse cx="174" cy="454" rx="13" ry="7" fill="#33373d"/>
<line x1="120" y1="196" x2="46" y2="164" stroke="#1a1a1a" stroke-width="13.0" stroke-linecap="round"/>
<line x1="180" y1="196" x2="254" y2="164" stroke="#1a1a1a" stroke-width="13.0" stroke-linecap="round"/>
<line x1="150" y1="194" x2="150" y2="163" stroke="#1a1a1a" stroke-width="13.0" stroke-linecap="round"/>
<path d="M 103.0 181.0 L 103.0 125.0 Q 103.0 73.0 150 73.0 Q 197.0 73.0 197.0 125.0 L 197.0 181.0 L 184.0 181.0 L 184.0 127.0 Q 184.0 93.0 150 93.0 Q 116.0 93.0 116.0 127.0 L 116.0 181.0 Z" fill="#5a3a1f" stroke="#1a1a1a" stroke-width="3" stroke-linejoin="round"/>
<g transform="translate(0,-3)"><path d="M 124.0 305 L 148.0 305 L 144.0 455 L 120.0 455 Z" fill="#f6efe2" stroke="#1a1a1a" stroke-width="3" stroke-linejoin="round"/>
<path d="M 152.0 305 L 176.0 305 L 180.0 455 L 156.0 455 Z" fill="#f6efe2" stroke="#1a1a1a" stroke-width="3" stroke-linejoin="round"/>
<path d="M 120.0 197 L 180.0 197 L 178.0 305 L 180.0 449 L 158.0 449 L 156.0 311 L 144.0 311 L 142.0 449 L 120.0 449 L 122.0 305 Z" fill="#d24a8a" stroke="#1a1a1a" stroke-width="4" stroke-linejoin="round"/>
<path d="M 140.0 199 Q 150.0 191 160.0 199" fill="none" stroke="#b83a72" stroke-width="5" stroke-linejoin="round"/>
<path d="M 150.0 205 L 174.0 215" fill="none" stroke="#b83a72" stroke-width="2" stroke-linejoin="round"/>
<circle cx="150" cy="221" r="2" fill="#f2c14e" stroke="#1a1a1a" stroke-width="0"/>
<circle cx="150" cy="243" r="2" fill="#f2c14e" stroke="#1a1a1a" stroke-width="0"/>
<circle cx="150" cy="265" r="2" fill="#f2c14e" stroke="#1a1a1a" stroke-width="0"/>
<circle cx="150" cy="287" r="2" fill="#f2c14e" stroke="#1a1a1a" stroke-width="0"/></g>
<path d="M 103.0 181.0 L 103.0 125.0 Q 103.0 73.0 150.0 73.0 Q 197.0 73.0 197.0 125.0 L 197.0 181.0 L 184.0 181.0 L 184.0 127.0 Q 184.0 93.0 150.0 93.0 Q 116.0 93.0 116.0 127.0 L 116.0 181.0 Z" fill="#241c14" stroke="#1a1a1a" stroke-width="3"/>
<circle id="h1" data-fig="fa" class="skin" cx="150" cy="127" r="40" fill="#f5d6b0" stroke="#1a1a1a" stroke-width="6"/>
<path d="M 112.0 93.0 Q 150.0 79.0 188.0 93.0 Q 150.0 89.0 112.0 93.0 Z" fill="#241c14" stroke="#1a1a1a" stroke-width="3"/>
<g transform="translate(0,-3)"><ellipse cx="150" cy="92" rx="46" ry="10" fill="#b8923f" stroke="#1a1a1a" stroke-width="4"/>
<path d="M 106.0 92 L 150.0 50 L 194.0 92 Z" fill="#e3c374" stroke="#1a1a1a" stroke-width="4" stroke-linejoin="round"/>
<line x1="150" y1="92" x2="150" y2="164" stroke="#b83a72" stroke-width="2" stroke-linecap="round"/></g>
<line x1="357" y1="300" x2="348" y2="452" stroke="#39425c" stroke-width="16.0" stroke-linecap="round"/>
<line x1="387" y1="300" x2="396" y2="452" stroke="#39425c" stroke-width="16.0" stroke-linecap="round"/>
<ellipse cx="348" cy="454" rx="13" ry="7" fill="#33373d"/>
<ellipse cx="396" cy="454" rx="13" ry="7" fill="#33373d"/>
<polygon points="340,194 404,194 402,302 342,302" fill="#cc5544" stroke="#1a1a1a" stroke-width="5" stroke-linejoin="round"/>
<line x1="342" y1="196" x2="322" y2="302" stroke="#1a1a1a" stroke-width="13.0" stroke-linecap="round"/>
<line x1="402" y1="196" x2="422" y2="302" stroke="#1a1a1a" stroke-width="13.0" stroke-linecap="round"/>
<line x1="372" y1="194" x2="372" y2="163" stroke="#1a1a1a" stroke-width="13.0" stroke-linecap="round"/>
<g transform="translate(0,-3)"><path d="M 346.0 305 L 370.0 305 L 366.0 455 L 342.0 455 Z" fill="#3a4a63" stroke="#1a1a1a" stroke-width="3" stroke-linejoin="round"/>
<path d="M 374.0 305 L 398.0 305 L 402.0 455 L 378.0 455 Z" fill="#3a4a63" stroke="#1a1a1a" stroke-width="3" stroke-linejoin="round"/>
<path d="M 342.0 197 L 402.0 197 L 406.0 375 L 338.0 375 Z" fill="#2a5a8a" stroke="#1a1a1a" stroke-width="4" stroke-linejoin="round"/>
<path d="M 362.0 199 Q 372.0 191 382.0 199" fill="none" stroke="#1f4368" stroke-width="5" stroke-linejoin="round"/>
<path d="M 372.0 205 L 396.0 215" fill="none" stroke="#1f4368" stroke-width="2" stroke-linejoin="round"/>
<line x1="372" y1="205" x2="372" y2="369" stroke="#1f4368" stroke-width="2" stroke-linecap="round"/></g>
<line x1="342" y1="196" x2="322" y2="302" stroke="#ffffff" stroke-width="20" stroke-linecap="round"/>
<line x1="342" y1="196" x2="322" y2="302" stroke="#1a1a1a" stroke-width="13.0" stroke-linecap="round"/>
<line x1="402" y1="196" x2="422" y2="302" stroke="#ffffff" stroke-width="20" stroke-linecap="round"/>
<line x1="402" y1="196" x2="422" y2="302" stroke="#1a1a1a" stroke-width="13.0" stroke-linecap="round"/>
<circle id="h2" data-fig="ma" class="skin" cx="372" cy="127" r="40" fill="#f5d6b0" stroke="#1a1a1a" stroke-width="6"/>
<path d="M 332.0 127.0 Q 332.0 77.0 372 77.0 Q 412.0 77.0 412.0 127.0 Q 372 100.0 332.0 127.0 Z" fill="#241c14" stroke="#1a1a1a" stroke-width="3" stroke-linejoin="round"/>
<g transform="translate(0,-3)"><path d="M 328.0 134 Q 326.0 66 372.0 66 Q 418.0 66 416.0 134 Q 372.0 98 328.0 134 Z" fill="#2a5a8a" stroke="#1a1a1a" stroke-width="4" stroke-linejoin="round"/>
<path d="M 330.0 128 Q 372.0 92 414.0 128" fill="none" stroke="#9e4d22" stroke-width="3" stroke-linejoin="round"/>
<path d="M 360.0 68 Q 372.0 60 384.0 68" fill="none" stroke="#2a5a8a" stroke-width="6" stroke-linejoin="round"/></g>
<circle cx="359" cy="124" r="4" fill="#1a1a1a" stroke="#1a1a1a" stroke-width="0"/>
<circle cx="385" cy="124" r="4" fill="#1a1a1a" stroke="#1a1a1a" stroke-width="0"/>
<path d="M 358.0 141.0 Q 372 157.0 386.0 141.0" fill="none" stroke="#1a1a1a" stroke-width="4" stroke-linejoin="round"/>
<rect x="400" y="316" width="40" height="46" rx="3" fill="#2f9e4a" stroke="#1a1a1a" stroke-width="3"/>
<path d="M 408 318 q 0 -18 12 -18 q 12 0 12 18" fill="none" stroke="#1a1a1a" stroke-width="4" stroke-linejoin="round"/>
<line x1="372" y1="150" x2="372" y2="196" stroke="#f0c419" stroke-width="7" stroke-linecap="round"/>
<polygon points="372,196 363,182 381,182" fill="#f0c419" stroke="#1a1a1a" stroke-width="2" stroke-linejoin="round"/>
</g></svg>
