<svg data-cover="arms:covered" xmlns="http://www.w3.org/2000/svg" viewBox="59.31 46.51 448.00 448.00"><metadata id="sah">{"v":1,"fig":[["h1","ma"],["h2","fa"],["h3","ma"]]}</metadata>
<line x1="183" y1="305" x2="174" y2="455" stroke="#39425c" stroke-width="16" stroke-linecap="round"/>
<line x1="209" y1="305" x2="218" y2="455" stroke="#39425c" stroke-width="16" stroke-linecap="round"/>
<ellipse cx="174" cy="457" rx="13" ry="7" fill="#33373d" stroke="#1a1a1a" stroke-width="4"/>
<ellipse cx="218" cy="457" rx="13" ry="7" fill="#33373d" stroke="#1a1a1a" stroke-width="4"/>
<polygon points="164,197 228,197 226,305 166,305" fill="#2a5a8a" stroke="#1a1a1a" stroke-width="5" stroke-linejoin="round"/>
<line x1="196" y1="197" x2="196" y2="166" stroke="#1a1a1a" stroke-width="14" stroke-linecap="round"/>
<path d="M 170.0 305 L 194.0 305 L 190.0 455 L 166.0 455 Z" fill="#3a4a63" stroke="#1a1a1a" stroke-width="3" stroke-linejoin="round"/>
<path d="M 198.0 305 L 222.0 305 L 226.0 455 L 202.0 455 Z" fill="#3a4a63" stroke="#1a1a1a" stroke-width="3" stroke-linejoin="round"/>
<path d="M 166.0 197 L 226.0 197 L 230.0 375 L 162.0 375 Z" fill="#2a5a8a" stroke="#1a1a1a" stroke-width="4" stroke-linejoin="round"/>
<path d="M 186.0 199 Q 196.0 191 206.0 199" fill="none" stroke="#1f4368" stroke-width="5" stroke-linejoin="round"/>
<path d="M 196.0 205 L 220.0 215" fill="none" stroke="#1f4368" stroke-width="2" stroke-linejoin="round"/>
<line x1="196" y1="205" x2="196" y2="369" stroke="#1f4368" stroke-width="2" stroke-linecap="round"/>
<line x1="166" y1="201" x2="152" y2="305" stroke="#ffffff" stroke-width="21" stroke-linecap="round"/>
<line x1="166" y1="201" x2="152" y2="305" stroke="#1a1a1a" stroke-width="14" stroke-linecap="round"/>
<line x1="226" y1="201" x2="236" y2="255" stroke="#ffffff" stroke-width="21" stroke-linecap="round"/>
<line x1="226" y1="201" x2="236" y2="255" stroke="#1a1a1a" stroke-width="14" stroke-linecap="round"/>
<line x1="252" y1="201" x2="252" y2="305" stroke="#ffffff" stroke-width="21" stroke-linecap="round"/>
<line x1="252" y1="201" x2="252" y2="305" stroke="#1a1a1a" stroke-width="14" stroke-linecap="round"/>
<circle id="h1" data-fig="ma" class="skin" cx="196" cy="130" r="40" fill="#f5d6b0" stroke="#1a1a1a" stroke-width="6"/>
<path d="M 156 130 Q 156 80 196 80 Q 236 80 236 130 Q 196 103 156 130 Z" fill="#241c14" stroke="#1a1a1a" stroke-width="3" stroke-linejoin="round"/>
<line x1="269" y1="305" x2="260" y2="455" stroke="#39425c" stroke-width="16" stroke-linecap="round"/>
<line x1="295" y1="305" x2="304" y2="455" stroke="#39425c" stroke-width="16" stroke-linecap="round"/>
<ellipse cx="260" cy="457" rx="13" ry="7" fill="#33373d" stroke="#1a1a1a" stroke-width="4"/>
<ellipse cx="304" cy="457" rx="13" ry="7" fill="#33373d" stroke="#1a1a1a" stroke-width="4"/>
<polygon points="250,197 314,197 312,305 252,305" fill="#d6529e" stroke="#1a1a1a" stroke-width="5" stroke-linejoin="round"/>
<line x1="282" y1="197" x2="282" y2="166" stroke="#1a1a1a" stroke-width="14" stroke-linecap="round"/>
<path d="M 235 184 L 235 128 Q 235 76 282 76 Q 329 76 329 128 L 329 184 L 316 184 L 316 130 Q 316 96 282 96 Q 248 96 248 130 L 248 184 Z" fill="#5a3a1f" stroke="#1a1a1a" stroke-width="3" stroke-linejoin="round"/>
<path d="M 256.0 305 L 280.0 305 L 276.0 455 L 252.0 455 Z" fill="#f6efe2" stroke="#1a1a1a" stroke-width="3" stroke-linejoin="round"/>
<path d="M 284.0 305 L 308.0 305 L 312.0 455 L 288.0 455 Z" fill="#f6efe2" stroke="#1a1a1a" stroke-width="3" stroke-linejoin="round"/>
<path d="M 252.0 197 L 312.0 197 L 310.0 305 L 312.0 449 L 290.0 449 L 288.0 311 L 276.0 311 L 274.0 449 L 252.0 449 L 254.0 305 Z" fill="#d24a8a" stroke="#1a1a1a" stroke-width="4" stroke-linejoin="round"/>
<path d="M 272.0 199 Q 282.0 191 292.0 199" fill="none" stroke="#b83a72" stroke-width="5" stroke-linejoin="round"/>
<path d="M 282.0 205 L 306.0 215" fill="none" stroke="#b83a72" stroke-width="2" stroke-linejoin="round"/>
<circle cx="282" cy="221" r="2" fill="#f2c14e" stroke="#1a1a1a" stroke-width="0"/>
<circle cx="282" cy="243" r="2" fill="#f2c14e" stroke="#1a1a1a" stroke-width="0"/>
<circle cx="282" cy="265" r="2" fill="#f2c14e" stroke="#1a1a1a" stroke-width="0"/>
<circle cx="282" cy="287" r="2" fill="#f2c14e" stroke="#1a1a1a" stroke-width="0"/>
<line x1="226" y1="201" x2="236" y2="255" stroke="#ffffff" stroke-width="21" stroke-linecap="round"/>
<line x1="226" y1="201" x2="236" y2="255" stroke="#1a1a1a" stroke-width="14" stroke-linecap="round"/>
<line x1="252" y1="201" x2="252" y2="305" stroke="#ffffff" stroke-width="21" stroke-linecap="round"/>
<line x1="252" y1="201" x2="252" y2="305" stroke="#1a1a1a" stroke-width="14" stroke-linecap="round"/>
<line x1="312" y1="201" x2="326" y2="305" stroke="#ffffff" stroke-width="21" stroke-linecap="round"/>
<line x1="312" y1="201" x2="326" y2="305" stroke="#1a1a1a" stroke-width="14" stroke-linecap="round"/>
<line x1="342" y1="201" x2="328" y2="305" stroke="#ffffff" stroke-width="21" stroke-linecap="round"/>
<line x1="342" y1="201" x2="328" y2="305" stroke="#1a1a1a" stroke-width="14" stroke-linecap="round"/>
<path d="M 235.0 184.0 L 235.0 128.0 Q 235.0 76.0 282.0 76.0 Q 329.0 76.0 329.0 128.0 L 329.0 184.0 L 316.0 184.0 L 316.0 130.0 Q 316.0 96.0 282.0 96.0 Q 248.0 96.0 248.0 130.0 L 248.0 184.0 Z" fill="#241c14" stroke="#1a1a1a" stroke-width="3"/>
<circle id="h2" data-fig="fa" class="skin" cx="282" cy="130" r="40" fill="#f5d6b0" stroke="#1a1a1a" stroke-width="6"/>
<path d="M 244.0 96.0 Q 282.0 82.0 320.0 96.0 Q 282.0 92.0 244.0 96.0 Z" fill="#241c14" stroke="#1a1a1a" stroke-width="3"/>
<line x1="166" y1="201" x2="152" y2="305" stroke="#1a1a1a" stroke-width="14" stroke-linecap="round"/>
<line x1="226" y1="201" x2="236" y2="255" stroke="#1a1a1a" stroke-width="14" stroke-linecap="round"/>
<rect x="223" y="243" width="30" height="28" rx="8" fill="#f1c9a5" stroke="#1a1a1a" stroke-width="3"/>
<rect x="224" y="229" width="6" height="16" rx="3" fill="#f1c9a5" stroke="#1a1a1a" stroke-width="2"/>
<rect x="232" y="229" width="6" height="16" rx="3" fill="#f1c9a5" stroke="#1a1a1a" stroke-width="2"/>
<rect x="240" y="229" width="6" height="16" rx="3" fill="#f1c9a5" stroke="#1a1a1a" stroke-width="2"/>
<rect x="248" y="229" width="6" height="16" rx="3" fill="#f1c9a5" stroke="#1a1a1a" stroke-width="2"/>
<rect x="215" y="251" width="12" height="10" rx="4" fill="#f1c9a5" stroke="#1a1a1a" stroke-width="2"/>
<line x1="252" y1="201" x2="252" y2="305" stroke="#1a1a1a" stroke-width="14" stroke-linecap="round"/>
<line x1="312" y1="201" x2="326" y2="305" stroke="#1a1a1a" stroke-width="14" stroke-linecap="round"/>
<line x1="359" y1="305" x2="350" y2="455" stroke="#39425c" stroke-width="16" stroke-linecap="round"/>
<line x1="385" y1="305" x2="394" y2="455" stroke="#39425c" stroke-width="16" stroke-linecap="round"/>
<ellipse cx="350" cy="457" rx="13" ry="7" fill="#33373d" stroke="#1a1a1a" stroke-width="4"/>
<ellipse cx="394" cy="457" rx="13" ry="7" fill="#33373d" stroke="#1a1a1a" stroke-width="4"/>
<polygon points="340,197 404,197 402,305 342,305" fill="#3d8a6b" stroke="#1a1a1a" stroke-width="5" stroke-linejoin="round"/>
<line x1="372" y1="197" x2="372" y2="166" stroke="#1a1a1a" stroke-width="14" stroke-linecap="round"/>
<path d="M 346.0 305 L 370.0 305 L 366.0 455 L 342.0 455 Z" fill="#3a4a63" stroke="#1a1a1a" stroke-width="3" stroke-linejoin="round"/>
<path d="M 374.0 305 L 398.0 305 L 402.0 455 L 378.0 455 Z" fill="#3a4a63" stroke="#1a1a1a" stroke-width="3" stroke-linejoin="round"/>
<path d="M 342.0 197 L 402.0 197 L 406.0 375 L 338.0 375 Z" fill="#2a5a8a" stroke="#1a1a1a" stroke-width="4" stroke-linejoin="round"/>
<path d="M 362.0 199 Q 372.0 191 382.0 199" fill="none" stroke="#1f4368" stroke-width="5" stroke-linejoin="round"/>
<path d="M 372.0 205 L 396.0 215" fill="none" stroke="#1f4368" stroke-width="2" stroke-linejoin="round"/>
<line x1="372" y1="205" x2="372" y2="369" stroke="#1f4368" stroke-width="2" stroke-linecap="round"/>
<line x1="312" y1="201" x2="326" y2="305" stroke="#ffffff" stroke-width="21" stroke-linecap="round"/>
<line x1="312" y1="201" x2="326" y2="305" stroke="#1a1a1a" stroke-width="14" stroke-linecap="round"/>
<line x1="342" y1="201" x2="328" y2="305" stroke="#ffffff" stroke-width="21" stroke-linecap="round"/>
<line x1="342" y1="201" x2="328" y2="305" stroke="#1a1a1a" stroke-width="14" stroke-linecap="round"/>
<line x1="402" y1="201" x2="416" y2="305" stroke="#ffffff" stroke-width="21" stroke-linecap="round"/>
<line x1="402" y1="201" x2="416" y2="305" stroke="#1a1a1a" stroke-width="14" stroke-linecap="round"/>
<circle id="h3" data-fig="ma" class="skin" cx="372" cy="130" r="40" fill="#f5d6b0" stroke="#1a1a1a" stroke-width="6"/>
<path d="M 332 130 Q 332 80 372 80 Q 412 80 412 130 Q 372 103 332 130 Z" fill="#241c14" stroke="#1a1a1a" stroke-width="3" stroke-linejoin="round"/>
<path d="M 328.0 134 Q 326.0 66 372.0 66 Q 418.0 66 416.0 134 Q 372.0 98 328.0 134 Z" fill="#2a5a8a" stroke="#1a1a1a" stroke-width="4" stroke-linejoin="round"/>
<path d="M 330.0 128 Q 372.0 92 414.0 128" fill="none" stroke="#9e4d22" stroke-width="3" stroke-linejoin="round"/>
<path d="M 360.0 68 Q 372.0 60 384.0 68" fill="none" stroke="#2a5a8a" stroke-width="6" stroke-linejoin="round"/>
<line x1="342" y1="201" x2="328" y2="305" stroke="#1a1a1a" stroke-width="14" stroke-linecap="round"/>
<line x1="402" y1="201" x2="416" y2="305" stroke="#1a1a1a" stroke-width="14" stroke-linecap="round"/>
<line x1="322" y1="255" x2="264" y2="255" stroke="#1a1a1a" stroke-width="16.0" stroke-linecap="round"/><line x1="264" y1="255" x2="280" y2="241" stroke="#1a1a1a" stroke-width="16.0" stroke-linecap="round"/><line x1="264" y1="255" x2="280" y2="269" stroke="#1a1a1a" stroke-width="16.0" stroke-linecap="round"/><line x1="322" y1="255" x2="264" y2="255" stroke="#2f9e4a" stroke-width="10.5" stroke-linecap="round"/>
<line x1="264" y1="255" x2="280" y2="241" stroke="#2f9e4a" stroke-width="10.5" stroke-linecap="round"/>
<line x1="264" y1="255" x2="280" y2="269" stroke="#2f9e4a" stroke-width="10.5" stroke-linecap="round"/>
<path d="M 238 98 C 218 81 218 101 238 112 C 258 101 258 81 238 98 Z" fill="#e23b3b" stroke="#1a1a1a" stroke-width="2"/>
</svg>
